<svg xmlns="http://www.w3.org/2000/svg" xmlns:xlink="http://www.w3.org/1999/xlink" width="83" height="57.26" viewBox="0 0 83 57.26">
  <defs>
    <clipPath id="clip-Artboard_1">
      <rect width="83" height="57.26"/>
    </clipPath>
  </defs>
  <g id="Artboard_1" data-name="Artboard – 1" clip-path="url(#clip-Artboard_1)">
    <rect width="83" height="57.26" fill="#fff"/>
    <path id="Union_5" data-name="Union 5" d="M-4379.85-4909.038a14.718,14.718,0,0,1-.15-2.149c0-.058,0-.116,0-.174s0-.093,0-.141q0-.568.032-1.128c.548-13.161,8.2-36.369,13.289-36.369,3.7,0,.44,10.4-1.844,19.478a19.21,19.21,0,0,1,8.023-1.745A19.633,19.633,0,0,1-4341-4911.5a19.634,19.634,0,0,1-19.5,19.765A19.6,19.6,0,0,1-4379.85-4909.038Z" transform="translate(4380 4948.999)" fill="#119da4"/>
    <path id="Union_4" data-name="Union 4" d="M-4379.85-4909.038a14.718,14.718,0,0,1-.15-2.149c0-.058,0-.116,0-.174s0-.093,0-.141q0-.568.032-1.128c.548-13.161,8.2-36.369,13.289-36.369,3.7,0,.44,10.4-1.844,19.478a19.21,19.21,0,0,1,8.023-1.745A19.633,19.633,0,0,1-4341-4911.5a19.634,19.634,0,0,1-19.5,19.765A19.6,19.6,0,0,1-4379.85-4909.038Z" transform="translate(4424 4948.999)" fill="#119da4"/>
  </g>
</svg>
